REM DIRINDEX 1\2,1\3
REM DIRNAME cjc133,folder01,folder02
TITLE ""
FILE "DISC2Track03.mp3" MP3
  TRACK 01 AUDIO
    TITLE "0:"
    INDEX 01 00:00:00
  TRACK 02 AUDIO
    TITLE "3:cjc133_1797"
    INDEX 01 00:00:15
  TRACK 03 AUDIO
    TITLE "0:"
    INDEX 01 00:01:28
  TRACK 04 AUDIO
    TITLE "2:cjc133_1798"
    INDEX 01 00:02:04
  TRACK 05 AUDIO
    TITLE "2:cjc133_1799"
    INDEX 01 00:05:38
  TRACK 06 AUDIO
    TITLE "2:cjc133_1800"
    INDEX 01 00:09:00
  TRACK 07 AUDIO
    TITLE "0:"
    INDEX 01 00:11:58
  TRACK 08 AUDIO
    TITLE "2:cjc133_1801"
    INDEX 01 00:12:24
  TRACK 09 AUDIO
    TITLE "2:cjc133_1802"
    INDEX 01 00:15:15
  TRACK 10 AUDIO
    TITLE "2:cjc133_1803"
    INDEX 01 00:19:11
  TRACK 11 AUDIO
    TITLE "0:"
    INDEX 01 00:22:11
  TRACK 12 AUDIO
    TITLE "2:cjc133_1804"
    INDEX 01 00:22:62
  TRACK 13 AUDIO
    TITLE "2:cjc133_1805"
    INDEX 01 00:24:08
  TRACK 14 AUDIO
    TITLE "2:cjc133_1806"
    INDEX 01 00:27:71
  TRACK 15 AUDIO
    TITLE "0:"
    INDEX 01 00:30:65
  TRACK 16 AUDIO
    TITLE "2:cjc133_1807"
    INDEX 01 00:31:39
  TRACK 17 AUDIO
    TITLE "2:cjc133_1808"
    INDEX 01 00:33:73
  TRACK 18 AUDIO
    TITLE "2:cjc133_1809"
    INDEX 01 00:37:50
  TRACK 19 AUDIO
    TITLE "0:"
    INDEX 01 00:40:36
  TRACK 20 AUDIO
    TITLE "2:cjc133_1810"
    INDEX 01 00:41:14
  TRACK 21 AUDIO
    TITLE "2:cjc133_1811"
    INDEX 01 00:42:08
  TRACK 22 AUDIO
    TITLE "2:cjc133_1812"
    INDEX 01 00:45:30
  TRACK 23 AUDIO
    TITLE "0:"
    INDEX 01 00:47:64
  TRACK 24 AUDIO
    TITLE "2:cjc133_1813"
    INDEX 01 00:48:38
  TRACK 25 AUDIO
    TITLE "2:cjc133_1814"
    INDEX 01 00:51:05
  TRACK 26 AUDIO
    TITLE "2:cjc133_1815"
    INDEX 01 00:54:52
  TRACK 27 AUDIO
    TITLE "0:"
    INDEX 01 00:57:31
  TRACK 28 AUDIO
    TITLE "2:cjc133_1816"
    INDEX 01 00:58:11
  TRACK 29 AUDIO
    TITLE "2:cjc133_1817"
    INDEX 01 01:00:60
  TRACK 30 AUDIO
    TITLE "2:cjc133_1818"
    INDEX 01 01:04:33
  TRACK 31 AUDIO
    TITLE "0:"
    INDEX 01 01:07:14
  TRACK 32 AUDIO
    TITLE "2:cjc133_1819"
    INDEX 01 01:07:64
  TRACK 33 AUDIO
    TITLE "2:cjc133_1820"
    INDEX 01 01:10:39
  TRACK 34 AUDIO
    TITLE "2:cjc133_1821"
    INDEX 01 01:13:30
  TRACK 35 AUDIO
    TITLE "0:"
    INDEX 01 01:15:29
  TRACK 36 AUDIO
    TITLE "2:cjc133_1822"
    INDEX 01 01:16:07
  TRACK 37 AUDIO
    TITLE "2:cjc133_1823"
    INDEX 01 01:17:67
  TRACK 38 AUDIO
    TITLE "2:cjc133_1824"
    INDEX 01 01:20:69
  TRACK 39 AUDIO
    TITLE "0:"
    INDEX 01 01:22:74
  TRACK 40 AUDIO
    TITLE "2:cjc133_1825"
    INDEX 01 01:23:52
  TRACK 41 AUDIO
    TITLE "2:cjc133_1826"
    INDEX 01 01:25:11
  TRACK 42 AUDIO
    TITLE "2:cjc133_1827"
    INDEX 01 01:27:63
  TRACK 43 AUDIO
    TITLE "0:"
    INDEX 01 01:29:58
  TRACK 44 AUDIO
    TITLE "2:cjc133_1828"
    INDEX 01 01:30:36
  TRACK 45 AUDIO
    TITLE "2:cjc133_1829"
    INDEX 01 01:31:67
  TRACK 46 AUDIO
    TITLE "2:cjc133_1830"
    INDEX 01 01:34:50
  TRACK 47 AUDIO
    TITLE "0:"
    INDEX 01 01:36:47
  TRACK 48 AUDIO
    TITLE "2:cjc133_1831"
    INDEX 01 01:37:21
  TRACK 49 AUDIO
    TITLE "2:cjc133_1832"
    INDEX 01 01:38:61
  TRACK 50 AUDIO
    TITLE "2:cjc133_1833"
    INDEX 01 01:41:42
  TRACK 51 AUDIO
    TITLE "0:"
    INDEX 01 01:43:43
  TRACK 52 AUDIO
    TITLE "2:cjc133_1834"
    INDEX 01 01:44:13
  TRACK 53 AUDIO
    TITLE "2:cjc133_1835"
    INDEX 01 01:45:30
  TRACK 54 AUDIO
    TITLE "2:cjc133_1836"
    INDEX 01 01:47:68
  TRACK 55 AUDIO
    TITLE "0:"
    INDEX 01 01:49:53
  TRACK 56 AUDIO
    TITLE "2:cjc133_1837"
    INDEX 01 01:50:29
  TRACK 57 AUDIO
    TITLE "2:cjc133_1838"
    INDEX 01 01:51:60
  TRACK 58 AUDIO
    TITLE "2:cjc133_1839"
    INDEX 01 01:54:33
  TRACK 59 AUDIO
    TITLE "0:"
    INDEX 01 01:56:24
  TRACK 60 AUDIO
    TITLE "2:cjc133_1840"
    INDEX 01 01:57:04
  TRACK 61 AUDIO
    TITLE "2:cjc133_1841"
    INDEX 01 01:58:44
  TRACK 62 AUDIO
    TITLE "2:cjc133_1842"
    INDEX 01 02:01:19
  TRACK 63 AUDIO
    TITLE "0:"
    INDEX 01 02:03:24
